<svg width="50" height="50" viewBox="0 0 50 50" fill="none" xmlns="http://www.w3.org/2000/svg" xmlns:xlink="http://www.w3.org/1999/xlink">
<path d="M49.147,25C49.147,38.807 38.111,50 24.497,50C10.883,50 -0.154,38.807 -0.154,25C-0.154,11.193 10.883,0 24.497,0C38.111,0 49.147,11.193 49.147,25M45.147,25L45.147,13.349L35.848,4L24.497,4L13.145,4L3.846,13.349L3.846,25L3.846,36.651L13.145,46L24.497,46L35.848,46L45.147,36.651" fill-rule="evenodd" fill="#000000"/>
<path d="M45.147,25L45.147,13.349L35.848,4L24.497,4L13.145,4L3.846,13.349L3.846,25L3.846,36.651L13.145,46L24.497,46L35.848,46L45.147,36.651" fill="#FFFFFF"/>
</svg>
